#!OML:ASF F:\VICON\USERDATA\INSTALL\rory3\rory3.ASF
:FULLY-SPECIFIED
:DEGREES
2755
root -14.9059 17.7333 -7.00134 22.9249 56.9119 6.93318
lowerback 12.8495 1.7298 -2.60669
upperback 6.80021 2.35494 6.24505
thorax -0.393535 1.12366 7.7731
lowerneck -9.59705 -8.67041 -9.57957
upperneck 33.6357 -11.6834 6.73438
head 14.0913 -5.13975 2.65747
rclavicle 1.90833e-014 -1.59028e-014
rhumerus 2.43452 -2.3876 -80.6306
rradius 32.1099
rwrist 1.23636
rhand -22.9664 -12.7913
rfingers 7.12502
rthumb 3.47551 -42.7427
lclavicle 1.90833e-014 -1.59028e-014
lhumerus -15.0625 -47.7174 95.1977
lradius 61.7915
lwrist 67.2241
lhand -15.3327 62.1566
lfingers 7.12502
lthumb 10.8439 -1891.86
rfemur -42.5063 -17.8689 16.6866
rtibia 51.854
rfoot -19.0312 -5.39782
rtoes -6.82824
lfemur -30.1339 3.01531 -25.3683
ltibia 30.5982
lfoot -12.8756 5.49079
ltoes -10.9067
2756
root -14.9123 17.7401 -7.02855 22.8008 56.3681 6.75134
lowerback 12.8338 1.9431 -2.42265
upperback 6.86728 2.65534 6.30068
thorax -0.356769 1.27556 7.68441
lowerneck -9.69675 -8.84013 -9.54156
upperneck 33.5463 -11.8792 6.5788
head 14.0794 -5.23641 2.54879
rclavicle -3.97569e-014 1.39944e-013
rhumerus 2.21568 0.581582 -81.0768
rradius 31.8606
rwrist 3.21733
rhand -18.2288 -12.6082
rfingers 7.12502
rthumb 8.04949 -42.4349
lclavicle -3.97569e-014 1.39944e-013
lhumerus -15.2649 -45.8493 94.6676
lradius 60.3952
lwrist 66.9913
lhand -14.2119 60.4123
lfingers 7.12502
lthumb 11.9247 -1890.05
rfemur -42.5845 -18.3049 17.4749
rtibia 52.2089
rfoot -19.2428 -4.97165
rtoes -6.26731
lfemur -30.1964 3.15989 -25.4636
ltibia 30.5861
lfoot -12.8641 5.906
ltoes -10.7122
2757
root -14.9167 17.7397 -7.05818 22.882 55.7948 6.79859
lowerback 12.873 2.26695 -2.17312
upperback 6.87998 3.09977 6.16172
thorax -0.415609 1.50489 7.32162
lowerneck -9.7025 -9.11466 -9.05857
upperneck 33.3808 -12.3294 6.4238
head 14.0001 -5.39047 2.32773
rclavicle -4.77083e-015 -1.74931e-014
rhumerus 1.72716 3.65405 -81.7055
rradius 31.7258
rwrist 2.69829
rhand -15.554 -11.3175
rfingers 7.12502
rthumb 10.6304 -41.0286
lclavicle -4.77083e-015 -1.74931e-014
lhumerus -15.7202 -44.8867 94.0751
lradius 59.7967
lwrist 67.8945
lhand -15.5689 59.2457
lfingers 7.12502
lthumb 10.616 -1711.04
rfemur -42.7129 -18.9437 18.1798
rtibia 52.5385
rfoot -19.2649 -4.33493
rtoes -5.4648
lfemur -30.3129 3.30548 -25.7251
ltibia 30.6521
lfoot -12.9009 6.29838
ltoes -10.9428
2758
root -14.9225 17.7261 -7.08727 23.044 55.1956 6.85359
lowerback 12.8474 2.27518 -2.19514
upperback 6.84849 3.10957 6.26346
thorax -0.442292 1.50846 7.44355
lowerneck -9.65475 -9.05293 -9.54032
upperneck 33.3959 -12.15 6.46422
head 14.023 -5.36883 2.45533
rclavicle -5.725e-014 -2.22639e-014
rhumerus 1.37263 7.1367 -82.3569
rradius 31.5941
rwrist 3.55354
rhand -10.9752 -10.1391
rfingers 7.12502
rthumb 15.0444 -39.5725
lclavicle -5.725e-014 -2.22639e-014
lhumerus -16.4807 -42.5215 93.7962
lradius 59.4547
lwrist 68.1526
lhand -16.9792 59.6837
lfingers 7.12502
lthumb 9.25539 -1710.54
rfemur -42.9603 -19.5706 18.8872
rtibia 52.8341
rfoot -19.2339 -3.60769
rtoes -5.33916
lfemur -30.5469 3.41167 -25.983
ltibia 30.7689
lfoot -12.9712 6.689
ltoes -9.98829
2759
root -14.9319 17.7133 -7.11463 23.0381 54.6484 6.81142
lowerback 12.9786 2.63868 -1.91683
upperback 6.87095 3.61167 6.152
thorax -0.542331 1.76758 7.08211
lowerneck -9.8701 -9.35491 -9.11004
upperneck 33.4921 -12.6765 6.46816
head 14.1337 -5.52906 2.28821
rclavicle 0 -1.59028e-014
rhumerus 1.05149 8.41591 -83.2662
rradius 31.504
rwrist 5.1582
rhand -6.06609 -9.09214
rfingers 7.12502
rthumb 19.7688 -38.1068
lclavicle 0 -1.59028e-014
lhumerus -16.8213 -41.4659 93.1084
lradius 59.1104
lwrist 68.9472
lhand -18.7179 59.8055
lfingers 7.12502
lthumb 7.57741 -1710.35
rfemur -43.0716 -20.1424 19.635
rtibia 53.0465
rfoot -19.2842 -3.07162
rtoes -6.71143
lfemur -30.7024 3.54881 -26.1648
ltibia 30.8721
lfoot -12.9853 7.07626
ltoes -9.7283
2760
root -14.9417 17.7101 -7.13924 23.2728 54.092 7.00786
lowerback 13.0553 3.05533 -1.77705
upperback 6.88622 4.1657 6.00852
thorax -0.626083 2.04849 6.75934
lowerneck -9.95954 -9.71941 -8.61415
upperneck 33.4351 -13.2953 6.42988
head 14.1442 -5.73228 2.08085
rclavicle -3.18055e-015 2.22639e-014
rhumerus 0.776374 9.62041 -84.007
rradius 31.4525
rwrist 5.93337
rhand -1.79693 -8.31258
rfingers 7.12502
rthumb 23.8681 -36.8495
lclavicle -3.18055e-015 2.22639e-014
lhumerus -16.9566 -40.2958 92.4518
lradius 58.2778
lwrist 69.0909
lhand -16.8087 60.6446
lfingers 7.12502
lthumb 9.41996 -1530.41
rfemur -43.1336 -20.4503 20.1345
rtibia 53.1414
rfoot -19.447 -2.64404
rtoes -7.70082
lfemur -30.8673 3.64507 -26.4795
ltibia 30.9365
lfoot -13.0488 7.43011
ltoes -9.40143
2761
root -14.9515 17.7143 -7.16298 23.3911 53.5939 7.1506
lowerback 13.2026 3.07472 -1.94637
upperback 6.94357 4.18249 6.24394
thorax -0.672807 2.05226 7.10439
lowerneck -10.0432 -9.70034 -9.20361
upperneck 33.402 -13.1036 6.34972
head 14.1757 -5.73154 2.17177
rclavicle 2.70347e-014 7.95139e-014
rhumerus 0.705594 12.1969 -84.4523
rradius 31.2829
rwrist 6.25357
rhand 2.20843 -7.33413
rfingers 7.12502
rthumb 27.7039 -35.3134
lclavicle 2.70347e-014 7.95139e-014
lhumerus -17.2175 -37.4123 92.1068
lradius 57.5135
lwrist 68.7624
lhand -16.3325 58.6864
lfingers 7.12502
lthumb 9.87938 -1351.57
rfemur -43.0421 -20.7162 20.5993
rtibia 53.1101
rfoot -19.5324 -2.07526
rtoes -7.78468
lfemur -30.9279 3.80208 -26.7603
ltibia 30.9338
lfoot -13.038 7.72748
ltoes -9.23046
2762
root -14.9628 17.7153 -7.18221 23.4673 53.1013 7.26914
lowerback 13.4118 3.32204 -1.88305
upperback 7.0002 4.51361 6.23537
thorax -0.766239 2.21974 6.99834
lowerneck -10.1981 -9.87672 -9.01795
upperneck 33.3912 -13.3629 6.25796
head 14.2067 -5.82487 2.05199
rclavicle -6.67916e-014 -3.65764e-014
rhumerus 0.528119 13.1855 -85.198
rradius 31.287
rwrist 6.82622
rhand 5.72629 -6.69052
rfingers 7.12502
rthumb 31.0625 -34.0801
lclavicle -6.67916e-014 -3.65764e-014
lhumerus -17.344 -35.6839 91.4245
lradius 57.1981
lwrist 69.2086
lhand -17.8331 58.1461
lfingers 7.12502
lthumb 8.43136 -1352.04
rfemur -42.9039 -20.9658 21.0436
rtibia 53.0214
rfoot -19.5786 -1.45451
rtoes -7.91053
lfemur -30.9394 4.00404 -27.014
ltibia 30.8812
lfoot -13.0745 8.00357
ltoes -9.16532
2763
root -14.9731 17.7079 -7.20101 23.8527 52.6324 7.59066
lowerback 13.3632 3.31692 -2.17463
upperback 7.02898 4.47822 6.39738
thorax -0.735881 2.19345 7.35164
lowerneck -10.205 -9.81659 -9.3994
upperneck 33.3267 -13.1552 6.16146
head 14.1843 -5.79704 2.10956
rclavicle 1.43125e-014 -9.54166e-015
rhumerus 0.323332 14.6948 -85.9097
rradius 31.4282
rwrist 7.45843
rhand 8.43161 -6.47845
rfingers 7.12502
rthumb 33.6373 -33.342
lclavicle 1.43125e-014 -9.54166e-015
lhumerus -17.7136 -32.9664 90.9768
lradius 57.0452
lwrist 69.4078
lhand -19.2226 58.6481
lfingers 7.12502
lthumb 7.0903 -1351.49
rfemur -42.9311 -21.301 21.4134
rtibia 52.8971
rfoot -19.4395 -0.8524
rtoes -8.66819
lfemur -31.1123 4.20938 -27.4227
ltibia 30.8644
lfoot -13.0947 8.1011
ltoes -9.01868
2764
root -14.9816 17.6976 -7.2246 24.4247 52.2535 7.96017
lowerback 13.2157 3.33966 -2.22082
upperback 7.0034 4.50022 6.41795
thorax -0.691885 2.20151 7.40338
lowerneck -10.2816 -9.84758 -9.48105
upperneck 33.3167 -13.1346 6.03142
head 14.1905 -5.81221 2.07003
rclavicle -1.39944e-013 4.92986e-014
rhumerus 0.1021 15.2422 -86.7802
rradius 31.5363
rwrist 8.08259
rhand 10.0633 -6.21711
rfingers 7.12502
rthumb 35.1864 -32.7294
lclavicle -1.39944e-013 4.92986e-014
lhumerus -17.9181 -30.639 90.4148
lradius 56.7143
lwrist 69.1613
lhand -19.7632 58.7891
lfingers 7.12502
lthumb 6.56845 -1351.33
rfemur -43.1246 -21.6049 21.7617
rtibia 52.7618
rfoot -19.392 -0.159236
rtoes -10.0753
lfemur -31.518 4.44803 -27.9094
ltibia 30.8989
lfoot -13.0482 8.04425
ltoes -8.66678
2765
root -14.9924 17.6877 -7.23983 24.8055 51.8938 8.26023
lowerback 13.1911 3.4387 -2.24633
upperback 6.99782 4.62514 6.41838
thorax -0.704847 2.26286 7.39962
lowerneck -10.2166 -9.91251 -9.39271
upperneck 33.2088 -13.2111 5.92012
head 14.1168 -5.85126 2.00052
rclavicle -1.90833e-014 -5.08889e-014
rhumerus -0.254623 15.3378 -87.634
rradius 31.775
rwrist 8.36238
rhand 10.82 -6.18587
rfingers 7.12502
rthumb 35.9036 -32.526
lclavicle -1.90833e-014 -5.08889e-014
lhumerus -17.974 -28.6509 89.8362
lradius 56.267
lwrist 68.9954
lhand -20.513 59.3803
lfingers 7.12502
lthumb 5.84456 -1350.72
rfemur -43.1238 -21.8293 22.0599
rtibia 52.6044
rfoot -19.2091 0.777556
rtoes -9.56409
lfemur -31.7418 4.61007 -28.2776
ltibia 30.9135
lfoot -13.1378 8.12646
ltoes -7.92308
2766
root -15.006 17.6736 -7.25547 25.543 51.4572 8.91449
lowerback 13.1089 3.48768 -2.52519
upperback 6.98221 4.6532 6.37188
thorax -0.697092 2.26986 7.50964
lowerneck -10.2362 -9.93996 -9.4972
upperneck 33.1672 -13.197 5.83746
head 14.1033 -5.86825 1.98523
rclavicle -6.04305e-014 4.77083e-015
rhumerus -0.581617 15.2907 -88.4378
rradius 31.9873
rwrist 8.5867
rhand 11.0515 -6.12157
rfingers 7.12502
rthumb 36.123 -32.4078
lclavicle -6.04305e-014 4.77083e-015
lhumerus -18.06 -26.5035 89.2308
lradius 55.9762
lwrist 68.7526
lhand -20.9453 59.7494
lfingers 7.12502
lthumb 5.42712 -1350.34
rfemur -43.2274 -22.0955 22.1082
rtibia 52.3879
rfoot -18.7286 1.65865
rtoes -7.99793
lfemur -32.0411 4.77406 -28.9275
ltibia 30.9017
lfoot -13.2643 8.17503
ltoes -7.00353
2767
root -15.0188 17.656 -7.27526 26.7735 51.0935 10.0081
lowerback 12.8753 3.57177 -2.98968
upperback 6.9129 4.70708 6.30603
thorax -0.680426 2.28628 7.70795
lowerneck -10.1396 -10.0511 -9.55646
upperneck 33.0184 -13.3153 5.75651
head 14.0259 -5.9403 1.9457
rclavicle -8.90555e-014 -7.31528e-014
rhumerus -0.862735 14.8499 -89.0039
rradius 32.1496
rwrist 8.32278
rhand 10.6283 -6.24123
rfingers 7.12502
rthumb 35.722 -32.6256
lclavicle -8.90555e-014 -7.31528e-014
lhumerus -18.1726 -24.7468 88.831
lradius 55.8213
lwrist 68.4916
lhand -21.5931 60.0028
lfingers 7.12502
lthumb 4.80172 -1350.07
rfemur -43.5187 -22.5285 21.9156
rtibia 52.0493
rfoot -17.9625 2.59195
rtoes -4.07591
lfemur -32.48 4.80373 -29.8782
ltibia 30.8809
lfoot -13.3097 8.06897
ltoes -6.95663
